<svg id="brand" xmlns="http://www.w3.org/2000/svg" width="32" height="32.013" viewBox="0 0 32 32.013">
  <g id="icon--color-black">
    <path id="Path_160" data-name="Path 160" d="M18.548.95,15.565.172A5.017,5.017,0,0,0,9.424,3.734L8.68,6.546A15.364,15.364,0,0,1,18.548.95Z" transform="translate(-4.566 -0.003)" fill="#231f20"/>
    <path id="Path_161" data-name="Path 161" d="M.9,39.33l-.73,2.755a5.017,5.017,0,0,0,3.561,6.136l2.845.759A15.369,15.369,0,0,1,.9,39.33Z" transform="translate(-0.003 -21.081)" fill="#231f20"/>
    <path id="Path_162" data-name="Path 162" d="M56.921,9.309,53.73,8.46a15.364,15.364,0,0,1,5.88,10.29l.877-3.319A5.017,5.017,0,0,0,56.921,9.309Z" transform="translate(-28.653 -4.45)" fill="#231f20"/>
    <path id="Path_163" data-name="Path 163" d="M38.69,59.63l3.059.825a5.017,5.017,0,0,0,6.136-3.561l.863-3.243A15.373,15.373,0,0,1,38.69,59.63Z" transform="translate(-20.745 -28.611)" fill="#231f20"/>
    <path id="Path_164" data-name="Path 164" d="M18.385,4.54A13.851,13.851,0,1,0,32.231,18.389,13.851,13.851,0,0,0,18.385,4.54Zm-7.844,6.909a3.955,3.955,0,1,1,3.137,4.632,3.955,3.955,0,0,1-3.137-4.632ZM16.3,23.416a3.955,3.955,0,1,1-.6-2.968A3.955,3.955,0,0,1,16.3,23.416Zm1.678-3.2a1.758,1.758,0,1,1,1.322-.272,1.758,1.758,0,0,1-1.322.272Zm8.251,5.109a3.955,3.955,0,1,1-3.137-4.632A3.955,3.955,0,0,1,26.224,25.323Zm-2.618-7.33a3.947,3.947,0,1,1,2.968-.605,3.955,3.955,0,0,1-2.968.605Z" transform="translate(-2.383 -2.389)" fill="#ed145b"/>
  </g>
</svg>
