<svg id="_002-instagram" data-name="002-instagram" xmlns="http://www.w3.org/2000/svg" width="32" height="32" viewBox="0 0 32 32">
  <path id="Path_156" data-name="Path 156" d="M22,0H10A10,10,0,0,0,0,10V22A10,10,0,0,0,10,32H22A10,10,0,0,0,32,22V10A10,10,0,0,0,22,0Zm7,22a7.008,7.008,0,0,1-7,7H10a7.008,7.008,0,0,1-7-7V10a7.008,7.008,0,0,1,7-7H22a7.008,7.008,0,0,1,7,7Z" fill="#9c00c1"/>
  <path id="Path_157" data-name="Path 157" d="M136.054,128a8.054,8.054,0,1,0,8.054,8.054A8.054,8.054,0,0,0,136.054,128Zm0,13.087a5.034,5.034,0,1,1,5.034-5.034A5.041,5.041,0,0,1,136.054,141.087Z" transform="translate(-120.054 -120.054)" fill="#9c00c1"/>
  <circle id="Ellipse_21" data-name="Ellipse 21" cx="1.073" cy="1.073" r="1.073" transform="translate(23.523 6.331)" fill="#9c00c1"/>
</svg>
