<svg id="_003-whatsapp" data-name="003-whatsapp" xmlns="http://www.w3.org/2000/svg" width="32" height="32" viewBox="0 0 32 32">
  <path id="Path_158" data-name="Path 158" d="M16,0H16A15.99,15.99,0,0,0,3.046,25.378L1.052,31.322,7.2,29.356A16,16,0,1,0,16,0Z" fill="#4caf50"/>
  <path id="Path_159" data-name="Path 159" d="M125.514,132.015a4.426,4.426,0,0,1-3.079,2.206c-.82.174-1.891.313-5.5-1.176-4.611-1.9-7.581-6.572-7.812-6.875a8.913,8.913,0,0,1-1.863-4.716,4.984,4.984,0,0,1,1.6-3.805,2.285,2.285,0,0,1,1.6-.561c.194,0,.369.01.526.018.461.02.692.047,1,.772.379.909,1.3,3.152,1.41,3.383a.928.928,0,0,1,.067.846,2.7,2.7,0,0,1-.508.717c-.231.266-.451.469-.683.754-.212.248-.451.514-.184.973a13.885,13.885,0,0,0,2.546,3.152,11.545,11.545,0,0,0,3.679,2.261,1,1,0,0,0,1.106-.174,18.917,18.917,0,0,0,1.226-1.618.877.877,0,0,1,1.126-.34c.424.147,2.665,1.251,3.126,1.479s.765.34.877.534A3.881,3.881,0,0,1,125.514,132.015Z" transform="translate(-100.372 -109.565)" fill="#fafafa"/>
</svg>
