<svg xmlns="http://www.w3.org/2000/svg" width="200" height="68.544" viewBox="0 0 200 68.544">
  <g id="layer1" transform="translate(96.071 78.008)">
    <g id="g20647" transform="translate(-96.071 -72.012)">
      <g id="g20645" transform="translate(0 0)">
        <path id="path20619" d="M-13604.789,293.559l-.974.971.974.972.975-.972Zm59.685,0-.973.971.973.972.976-.972Zm-49.771.607-1.364,1.079.39,6.881h.183l.859-.99.144-6.97Zm5.833,0-1.362,1.079.312,4.443a3.993,3.993,0,0,0,.236,1.168,1.9,1.9,0,0,0,.545.757,2.152,2.152,0,0,0,.794.394,4.222,4.222,0,0,0,1.05.118h6.165a2.725,2.725,0,0,0,.979-.166,2.071,2.071,0,0,0,.734-.453,2.551,2.551,0,0,0,.5-.692,3.5,3.5,0,0,0,.285-.852,4.791,4.791,0,0,0,.09-.972,8.062,8.062,0,0,0-.1-1.181,7.324,7.324,0,0,0-.237-1.151h-.173l-1.165,1.014a4.664,4.664,0,0,1,.546,1.807.61.61,0,0,1-.36.6,2.7,2.7,0,0,1-1.092.166h-6.138c-.15,0-.283,0-.394-.005s-.224-.021-.33-.036a1.548,1.548,0,0,1-.268-.072,1.332,1.332,0,0,1-.2-.107.476.476,0,0,1-.154-.168c-.033-.068-.067-.142-.1-.226a.7.7,0,0,1-.063-.3,1.792,1.792,0,0,0-.027-.369,1.483,1.483,0,0,1,0-.465l.15-4.329Zm-3.521.584-.971.972.971.972.976-.972Zm-13.2.358-.973.972.973.971.974-.971Zm.974.972.975.971.974-.971-.974-.972Zm58.712-.972-.974.972.974.971.973-.971Zm.973.972.976.971.975-.971-.975-.972Zm28.771-.847-.834,1.382.711.435a2.968,2.968,0,0,0-.979,1.032,2.543,2.543,0,0,0-.324,1.216,2.046,2.046,0,0,0,.239.943h-.5a1.454,1.454,0,0,1-1.052-.418,2.15,2.15,0,0,1-.322-.4,3.774,3.774,0,0,1-.242-.435c-.063-.127-.137-.3-.228-.513a8.169,8.169,0,0,0-.425-.859,1.947,1.947,0,0,0-.269-.358v-.01a1.464,1.464,0,0,0-.183-.176v.005a1.722,1.722,0,0,0-.4-.249,1.973,1.973,0,0,0-.829-.168,2,2,0,0,0-.515.066,1.925,1.925,0,0,0-.431.154,1.539,1.539,0,0,0-.358.269,3.575,3.575,0,0,0-.3.316,2.893,2.893,0,0,0-.256.387c-.093.155-.166.288-.222.4s-.125.255-.209.43c-.1.215-.177.377-.236.488s-.139.243-.242.406a1.492,1.492,0,0,1-.3.364,1.45,1.45,0,0,1-.347.215,1.152,1.152,0,0,1-.455.089h-7.55l-.6-.005a2.6,2.6,0,0,1-.427-.047.788.788,0,0,1-.334-.124,1.236,1.236,0,0,1-.2-.239.974.974,0,0,1-.15-.387,4.377,4.377,0,0,1-.063-.584l-.258-3.369-.126-.085-1.314.656.1.71a5.123,5.123,0,0,0-2.006,1.365,2.611,2.611,0,0,0-.713,1.7,1.467,1.467,0,0,0,.729,1.317,3.505,3.505,0,0,0,1.891.46c.185,0,.357-.008.514-.024l.226-1.139a2.5,2.5,0,0,0,.39.853,1.775,1.775,0,0,0,.636.518,3.185,3.185,0,0,0,.776.245,5.763,5.763,0,0,0,.895.064l.028,0h7.56a1.386,1.386,0,0,0,1.122-.453,3.662,3.662,0,0,0,.645-1.413l.178,1.312a4.919,4.919,0,0,0,.867.46,2.731,2.731,0,0,0,1.053.214,1.787,1.787,0,0,0,1.512-.768,2.564,2.564,0,0,0,.392-.816c0,.011.028.03.028.039a4.86,4.86,0,0,0,.287.495,1.987,1.987,0,0,0,.4.465,1.974,1.974,0,0,0,1.36.465h1.021a2.009,2.009,0,0,0,1.618-.548,2.463,2.463,0,0,0,1.811.607,2.111,2.111,0,0,0,.628-.095,2.133,2.133,0,0,0,.6-.292,2.5,2.5,0,0,0,.511-.477,2.091,2.091,0,0,0,.358-.68,2.744,2.744,0,0,0,.13-.857,2.315,2.315,0,0,0-.084-.615,2.782,2.782,0,0,0-.191-.525,2.094,2.094,0,0,0-.315-.464,5.063,5.063,0,0,0-.377-.4,3.975,3.975,0,0,0-.449-.352q-.271-.2-.449-.3c-.113-.075-.267-.169-.453-.28Zm-54.3.7-.55,1.6c.188.087.369.182.544.285a6.32,6.32,0,0,1,.543.364,3.218,3.218,0,0,1,.484.43,1.86,1.86,0,0,1,.34.483,1.169,1.169,0,0,1,.13.525.607.607,0,0,1-.406.565,2.388,2.388,0,0,1-1,.185,2.414,2.414,0,0,1-1.132-.173.834.834,0,0,1-.263-.738h-.794a4.378,4.378,0,0,0-.028.59,2.335,2.335,0,0,0,.515,1.639,2.213,2.213,0,0,0,1.684.554,2.6,2.6,0,0,0,.906-.149,1.935,1.935,0,0,0,.662-.4,2.232,2.232,0,0,0,.436-.6,2.669,2.669,0,0,0,.242-.726,3.7,3.7,0,0,0,.079-.8h0a4.156,4.156,0,0,0-2.157-3.63Zm-47.843.375a1.618,1.618,0,0,0-.992.4,4,4,0,0,0-.9,1.037,6.146,6.146,0,0,0-.646,1.49,6.489,6.489,0,0,0-.2,1.008h-.527a1.222,1.222,0,0,1-.794-.22,2.474,2.474,0,0,1-.535-.782l-.673-1.406h-.174l-1.038,1.181.681,1.223a1.953,1.953,0,0,1,.268.941,1.567,1.567,0,0,1-.479,1.109,3.33,3.33,0,0,1-1.206.8,6.432,6.432,0,0,1-1.615.423l-.105.2,1.208,1.312a4.584,4.584,0,0,0,1.075-.364,3.474,3.474,0,0,0,.818-.53,3.355,3.355,0,0,0,.6-.68,4.181,4.181,0,0,0,.425-.787,5.8,5.8,0,0,0,.274-.864,2.261,2.261,0,0,0,1.266.327c.207,0,.388-.021.578-.031a4.564,4.564,0,0,0,.63,1.761,5,5,0,0,0,2.377,1.83l.759-1.365a1.344,1.344,0,0,1-.412-.985,1.068,1.068,0,0,1,.438-.864,2.339,2.339,0,0,1,1.439-.346h6.169a2.713,2.713,0,0,0,1.151-.215,2.166,2.166,0,0,0,.82-.721,1.819,1.819,0,0,0,.652.679,1.774,1.774,0,0,0,.925.257,1.911,1.911,0,0,0,.882-.208,1.282,1.282,0,0,0,.584-.609,1.648,1.648,0,0,0,1.59.817,1.757,1.757,0,0,0,1.16-.4,2.273,2.273,0,0,0,.7-1.014,4.075,4.075,0,0,0,.218-1.365,7.93,7.93,0,0,0-.1-1.181,7.437,7.437,0,0,0-.237-1.151h-.171l-1.105.953a5.5,5.5,0,0,1,.353,1.008,3.658,3.658,0,0,1,.13.859.32.32,0,0,1-.22.31,1.888,1.888,0,0,1-.755.118,1.793,1.793,0,0,1-.863-.227.285.285,0,0,1-.1-.137.652.652,0,0,1-.043-.2v-.245c0-.071.025-.18.029-.327.026-.147.034-.274.057-.381s.048-.271.083-.477l-.111-.131-.748.149c-.056.31-.1.568-.148.775a3.689,3.689,0,0,1-.164.537,1.828,1.828,0,0,1-.176.346.589.589,0,0,1-.232.191.932.932,0,0,1-.286.089,2.879,2.879,0,0,1-.378.018,1.9,1.9,0,0,1-.461-.047.646.646,0,0,1-.3-.162.759.759,0,0,1-.154-.261,1.542,1.542,0,0,1-.036-.388,3.1,3.1,0,0,1,.057-.49c.029-.167.07-.376.125-.626l-.112-.13-.746.149q-.139.495-.208.721a4.55,4.55,0,0,1-.187.5,1.2,1.2,0,0,1-.217.375,1.581,1.581,0,0,1-.289.2.976.976,0,0,1-.4.131,5.444,5.444,0,0,1-.558.024h-6.167a1.04,1.04,0,0,0-.2.021,2.1,2.1,0,0,0-.774.2,2.244,2.244,0,0,0-.729.577,3.541,3.541,0,0,0-.49.817,4.471,4.471,0,0,0-.291.9,7.372,7.372,0,0,0-.111.876,2.936,2.936,0,0,1-1.308-1.235,3.446,3.446,0,0,1-.21-.438,3.858,3.858,0,0,0,1.748-.783,3.737,3.737,0,0,0,1.105-3,2.606,2.606,0,0,0-.138-.847,1.71,1.71,0,0,0-.437-.722.944.944,0,0,0-.7-.31Zm59.688,0a1.609,1.609,0,0,0-.99.4,4.015,4.015,0,0,0-.9,1.037,6.071,6.071,0,0,0-.645,1.49,6.377,6.377,0,0,0-.2,1.008h-.532a1.228,1.228,0,0,1-.794-.22,2.491,2.491,0,0,1-.533-.782l-.675-1.406h-.171l-1.039,1.181.681,1.223a1.954,1.954,0,0,1,.269.941,1.572,1.572,0,0,1-.479,1.109,3.322,3.322,0,0,1-1.206.8,6.4,6.4,0,0,1-1.614.423l-.106.2,1.208,1.312a4.546,4.546,0,0,0,1.074-.364,3.474,3.474,0,0,0,.818-.53,3.389,3.389,0,0,0,.6-.68,4.014,4.014,0,0,0,.424-.787,5.8,5.8,0,0,0,.275-.864,2.254,2.254,0,0,0,1.268.327h0c.205,0,.388-.021.578-.031a4.612,4.612,0,0,0,.63,1.761,5,5,0,0,0,2.379,1.83l.759-1.365a1.342,1.342,0,0,1-.413-.985,1.07,1.07,0,0,1,.436-.864,2.335,2.335,0,0,1,1.438-.346h6.169a2.721,2.721,0,0,0,1.154-.215,2.188,2.188,0,0,0,.82-.721,1.806,1.806,0,0,0,.65.679,1.78,1.78,0,0,0,.929.257,1.9,1.9,0,0,0,.878-.208,1.262,1.262,0,0,0,.583-.609,1.653,1.653,0,0,0,1.591.817,1.757,1.757,0,0,0,1.161-.4,2.254,2.254,0,0,0,.7-1.014,4,4,0,0,0,.22-1.365,7.93,7.93,0,0,0-.1-1.181,7.564,7.564,0,0,0-.236-1.151h-.172l-1.107.953a5.3,5.3,0,0,1,.354,1.008,3.7,3.7,0,0,1,.129.859.319.319,0,0,1-.22.31,1.826,1.826,0,0,1-.726.1,2.27,2.27,0,0,1-.757-.108.375.375,0,0,1-.135-.1.433.433,0,0,1-.1-.137.652.652,0,0,1-.043-.2v-.245c0-.071.024-.18.03-.327.024-.147.033-.274.054-.381s.051-.271.086-.477l-.114-.131-.745.149c-.056.31-.1.568-.149.775a2.932,2.932,0,0,1-.162.537,1.943,1.943,0,0,1-.177.346.607.607,0,0,1-.233.191.915.915,0,0,1-.287.089,2.872,2.872,0,0,1-.377.018,1.9,1.9,0,0,1-.46-.047.641.641,0,0,1-.3-.162.744.744,0,0,1-.154-.261,1.548,1.548,0,0,1-.035-.388,3.336,3.336,0,0,1,.054-.49c.032-.167.071-.376.125-.626l-.112-.13-.745.149c-.094.33-.162.57-.209.721a4.925,4.925,0,0,1-.185.5,1.233,1.233,0,0,1-.218.375,1.526,1.526,0,0,1-.287.2.98.98,0,0,1-.4.131,5.461,5.461,0,0,1-.558.024h-6.169a.905.905,0,0,0-.21.024,2.1,2.1,0,0,0-.771.2,2.275,2.275,0,0,0-.729.577,3.535,3.535,0,0,0-.488.817,4.3,4.3,0,0,0-.293.9,7.356,7.356,0,0,0-.108.876,2.928,2.928,0,0,1-1.309-1.235,3.906,3.906,0,0,1-.213-.437,3.839,3.839,0,0,0,1.749-.784,3.73,3.73,0,0,0,1.105-3,2.859,2.859,0,0,0-.134-.847,1.73,1.73,0,0,0-.437-.722.949.949,0,0,0-.707-.31Zm22.174,1.342.354,2.307a3.13,3.13,0,0,1-.755.084,2.421,2.421,0,0,1-1.029-.2.635.635,0,0,1-.418-.591,1.171,1.171,0,0,1,.472-.876,4.091,4.091,0,0,1,1.376-.728Zm20.771.173a.9.9,0,0,1,.615.22,1.167,1.167,0,0,1,.359.5,1.594,1.594,0,0,1,.1.573h0a1.078,1.078,0,0,1-.173.644.565.565,0,0,1-.489.245,1.379,1.379,0,0,1-.962-.352,1.115,1.115,0,0,1-.388-.853.955.955,0,0,1,.287-.68.879.879,0,0,1,.65-.3Zm-82.335.013-1.04,1.181c-.384.439.513.95.675,1.324a2.56,2.56,0,0,1,.244,1,1.376,1.376,0,0,1-.443.943,3.587,3.587,0,0,1-1.2.792,5.9,5.9,0,0,1-1.627.441l-.1.2,1.208,1.312q3.313-.7,3.314-4.282a5.94,5.94,0,0,0-.854-2.909Zm5.834,0-1.041,1.181c-.386.439.513.95.673,1.324a2.529,2.529,0,0,1,.245,1,1.387,1.387,0,0,1-.442.943,3.622,3.622,0,0,1-1.2.792,5.9,5.9,0,0,1-1.626.441l-.1.2,1.206,1.312q3.315-.7,3.316-4.282a5.96,5.96,0,0,0-.854-2.909Zm17.65,0-1.04,1.181a14.612,14.612,0,0,1,.675,1.324,2.554,2.554,0,0,1,.242,1,1.381,1.381,0,0,1-.441.943,3.607,3.607,0,0,1-1.2.792,5.7,5.7,0,0,1-1.623.441l-.108.2,1.21,1.312q3.313-.7,3.314-4.282a5.943,5.943,0,0,0-.855-2.909Zm-44.36.119a.787.787,0,0,1,.417.107.759.759,0,0,1,.287.287,1.5,1.5,0,0,1,.151.381,1.58,1.58,0,0,1,.049.411.771.771,0,0,1-.317.621,1.913,1.913,0,0,1-.786.369,4.554,4.554,0,0,1-1.05.114,4.575,4.575,0,0,1,.147-.983,2.631,2.631,0,0,1,.454-.943.83.83,0,0,1,.651-.364Zm59.685,0a.788.788,0,0,1,.418.107.8.8,0,0,1,.289.287,1.328,1.328,0,0,1,.147.381,1.879,1.879,0,0,1,.05.411.776.776,0,0,1-.314.621,1.916,1.916,0,0,1-.791.369,4.5,4.5,0,0,1-1.044.114,4.832,4.832,0,0,1,.144-.983,2.646,2.646,0,0,1,.453-.943.838.838,0,0,1,.652-.364Zm37.1.233a1.409,1.409,0,0,1,.679.177,1.574,1.574,0,0,1,.265.181.38.38,0,0,1,.076.061c.03.024.041.047.071.07a1.294,1.294,0,0,1,.412.936.683.683,0,0,1-.265.572.966.966,0,0,1-.617.2,3.21,3.21,0,0,1-2-.9,3.429,3.429,0,0,1,.58-.953A1.036,1.036,0,0,1-13522.265,298.187Zm8.538.549a3.906,3.906,0,0,1,.962.7,1.172,1.172,0,0,1,.438.8q0,.543-.788.542a3.232,3.232,0,0,1-1.23-.268,3.83,3.83,0,0,0,.423-.852,3.406,3.406,0,0,0,.2-.918Zm-67.562,4.328-.973.972.973.972.974-.972Z" transform="translate(13627.41 -249.128)" fill="#ff3a3a"/>
        <g id="g20643" transform="translate(0.002)">
          <rect id="rect20621" width="9.017" height="4.195" transform="translate(47.766 6.985)" fill="#ff3a3a"/>
          <circle id="circle20623" cx="2.097" cy="2.097" r="2.097" transform="translate(54.672 6.984)" fill="#ff3a3a"/>
          <circle id="circle20625" cx="2.097" cy="2.097" r="2.097" transform="translate(45.668 6.984)" fill="#ff3a3a"/>
          <circle id="circle20627" cx="2.758" cy="2.758" r="2.758" transform="translate(49.509)" fill="#ff3a3a"/>
          <circle id="circle20629" cx="2.758" cy="2.758" r="2.758" transform="translate(88.661 5.433)" fill="#ff3a3a"/>
          <circle id="circle20631" cx="2.758" cy="2.758" r="2.758" transform="translate(104.809 32.19)" fill="#ff3a3a"/>
          <path id="path20633" d="M-14075.393,582.954a.6.6,0,0,1-.217-.237,16.039,16.039,0,0,1-.18-2.1c-.23-4.144-.622-11.07-.847-14.942a35.068,35.068,0,0,1-.168-4.287,3.519,3.519,0,0,1,1.316-1.5l1.676-1.33c1.043-.829,1.272-.962,1.647-.962a.544.544,0,0,1,.447.164l.184.165-.028,2.044c-.024,2.207-.329,18.225-.368,19.013a2.834,2.834,0,0,1-.43,1.4,25.744,25.744,0,0,1-2.223,2.491.805.805,0,0,1-.819.076Z" transform="translate(14156.369 -554.454)" fill="#ff3a3a"/>
          <path id="path20635" d="M-14051.391,583.145a8.9,8.9,0,0,1-4.063-1.426,6.475,6.475,0,0,1-2.194-3.159c-.459-1.425-.6-2.434-.826-6.134-.091-1.486-.192-2.9-.225-3.152-.088-.685-.449-6.662-.449-7.407,0-.968.023-1.007,1.236-1.941.357-.274,1.1-.862,1.652-1.307,1.012-.814,1.341-1.02,1.63-1.022a.71.71,0,0,1,.642.364c.1.22.1.2-.272,11.369-.1,2.911-.109,3.758-.061,4.418.117,1.522.511,2.222,1.53,2.708a4.864,4.864,0,0,0,1.858.384,10.4,10.4,0,0,0,4.464-.416,2.622,2.622,0,0,0,.993-.978,3.383,3.383,0,0,0,.2-1.473,15.079,15.079,0,0,0-1.141-3.867c-.38-.973-.375-1.26.024-1.758a27.349,27.349,0,0,1,2.854-2.476,1.11,1.11,0,0,1,.656-.229c.564,0,.692.261,1.043,2.116a25.646,25.646,0,0,1,.543,6.383,11.512,11.512,0,0,1-.367,2.532,9.058,9.058,0,0,1-2.245,4.317,5.423,5.423,0,0,1-1.7,1.274,8.176,8.176,0,0,1-2.69.878,23.608,23.608,0,0,1-3.084,0Z" transform="translate(14157.357 -554.454)" fill="#ff3a3a"/>
          <path id="path20637" d="M-14071.753,591.612a7.093,7.093,0,0,1-1.572-1.479c-2.235-2.4-2.354-2.589-1.913-3.112.2-.235.4-.316,1.137-.448a21.6,21.6,0,0,0,2.941-.79c.164-.065.413-.158.552-.205s.413-.159.607-.248.367-.162.381-.162c.068,0,1.577-.9,1.971-1.174a8.193,8.193,0,0,0,2.223-2.372,3.335,3.335,0,0,0,.463-1.778,6.633,6.633,0,0,0-.606-2.725c-.226-.56-.323-.783-.706-1.622a3.87,3.87,0,0,1-.163-.386c0-.016-.207-.4-.457-.851-.587-1.054-.666-1.228-.667-1.508,0-.544.2-.855,1.651-2.513a11,11,0,0,1,1.35-1.413.893.893,0,0,1,1.059.224,20.2,20.2,0,0,1,1.16,2.216,19.048,19.048,0,0,1,1.453,7.71,19.361,19.361,0,0,1-1.194,5.74,13.416,13.416,0,0,1-2.066,3.247,14.527,14.527,0,0,1-2.063,1.737,21.22,21.22,0,0,1-2.588,1.346,5.094,5.094,0,0,1-2.945.565Z" transform="translate(14156.445 -553.829)" fill="#ff3a3a"/>
          <path id="path20639" d="M-14089.426,591.573a11.808,11.808,0,0,1-2.033-1.982c-1.584-1.758-1.572-1.744-1.572-2.11a.758.758,0,0,1,.477-.679,9.21,9.21,0,0,1,1.313-.338,13.8,13.8,0,0,0,3.052-.917,10.136,10.136,0,0,0,5.192-3.981,2.928,2.928,0,0,0,.4-1.829,5.355,5.355,0,0,0-.56-2.533c-.277-.688-.356-.871-.764-1.763a4.137,4.137,0,0,1-.163-.386c0-.016-.2-.388-.442-.826-.635-1.139-.684-1.245-.684-1.488,0-.514.228-.862,1.588-2.423,1.223-1.408,1.362-1.535,1.726-1.57a1.012,1.012,0,0,1,.8.3,19.63,19.63,0,0,1,1.288,2.693,16.751,16.751,0,0,1,1.187,4.615,18.75,18.75,0,0,1-.858,7.738,11.176,11.176,0,0,1-4.279,5.533,14.654,14.654,0,0,1-2.1,1.176,12.4,12.4,0,0,1-2.185.752,1.912,1.912,0,0,1-1.387.013Z" transform="translate(14155.46 -553.829)" fill="#ff3a3a"/>
          <path id="path20641" d="M-14124.372,593.448a15.539,15.539,0,0,1-4.1-2.781,11.94,11.94,0,0,1-2.541-3.424,11.968,11.968,0,0,1-1.132-2.956,7.575,7.575,0,0,0-.335-1.088c-.174-.267-.4-.314-1.769-.361-.7-.024-1.386-.069-1.53-.1a8.494,8.494,0,0,1-1.46-.431,3.485,3.485,0,0,0-.579-.193c-.191,0-.362.267-.539.84a14.233,14.233,0,0,1-1.829,3.916,11.731,11.731,0,0,1-6.273,4.747,6.388,6.388,0,0,1-1.38.346,2.255,2.255,0,0,1-1.022-.344,6.563,6.563,0,0,1-.758-.74c-.286-.317-.929-1.014-1.426-1.549a14.91,14.91,0,0,1-1-1.153.844.844,0,0,1,.3-1.108,2.046,2.046,0,0,1,.577-.173,22.059,22.059,0,0,0,4.647-1.357,9.355,9.355,0,0,0,4.389-3.73,4.985,4.985,0,0,0-.035-4.6c-.107-.241-.424-.851-.707-1.355s-.705-1.258-.937-1.676l-.425-.76v-.45a1.168,1.168,0,0,1,.168-.744,26.956,26.956,0,0,1,2.658-3c.363-.229.568-.257.848-.114a1.3,1.3,0,0,1,.369.3,9.672,9.672,0,0,1,.717,1.393c.071.17.338.727.589,1.238s.577,1.174.723,1.473a7.968,7.968,0,0,0,1.453,2.107,3.341,3.341,0,0,0,2.756.887c.808.005.895,0,1.037-.109.286-.213.354-.374.53-1.263.095-.48.225-1.062.289-1.294a25.31,25.31,0,0,1,.946-2.73c.242-.539.417-.933.519-1.175.064-.158.309-.611.542-1.006,1.333-2.261,3.309-4.167,4.85-4.677a4.347,4.347,0,0,1,2.217-.176,3.013,3.013,0,0,1,1.641.957,5.694,5.694,0,0,1,1.631,2.958,8.7,8.7,0,0,1,.235,2.755c-.132,5.179-1.921,8.536-5.532,10.382a14.829,14.829,0,0,1-2.278.9c-.869.27-1.036.45-.857.928a9.609,9.609,0,0,0,.993,1.67,10.052,10.052,0,0,0,1.755,1.77c1.121.844,1.29.814,1.462-.254a16.767,16.767,0,0,1,.8-3.32,9.052,9.052,0,0,1,.672-1.559,8.276,8.276,0,0,1,3.008-3.565,7.043,7.043,0,0,1,4.247-1.155c1.748-.078,2.257-.212,3.046-.8a3.5,3.5,0,0,0,.969-1.249,17.179,17.179,0,0,0,.8-2.07c.063-.222.173-.613.247-.868.306-1.084.639-1.346,1.983-1.568.549-.091.589-.091.8.005a.9.9,0,0,1,.451.9,9.462,9.462,0,0,1-.176,1.234,7.671,7.671,0,0,0-.183,1.773,2.7,2.7,0,0,0,.132,1.238,2.028,2.028,0,0,0,1.2,1.169,6.187,6.187,0,0,0,2.825.091c1.4-.3,2-1.335,2.678-4.689.24-1.185.424-1.369,1.647-1.665.7-.169.858-.173,1.1-.028.43.262.521.685.359,1.662a13.619,13.619,0,0,0-.258,2.616c0,.922.033,1.068.326,1.476.423.585,1.729.864,3.427.732a3.054,3.054,0,0,0,1.622-.4,1.093,1.093,0,0,0,.513-1.1,18.172,18.172,0,0,0-1-4.354,2.3,2.3,0,0,1-.191-.872c0-.63.12-.782,1.657-2.124,1.164-1.015,1.512-1.238,1.934-1.238.455,0,.6.167.8.95a27.425,27.425,0,0,1,.7,8.141,10.841,10.841,0,0,1-.646,2.812,7.131,7.131,0,0,1-2.934,3.732,6.06,6.06,0,0,1-3.256.8,5.767,5.767,0,0,1-4.248-1.578c-.447-.426-.595-.52-.741-.466a4.718,4.718,0,0,0-.623.531,5.13,5.13,0,0,1-3.7,1.495,5.394,5.394,0,0,1-2.926-.611,5.929,5.929,0,0,1-1.689-1.264c-.541-.551-.74-.659-.961-.521-.068.043-.38.307-.689.586a6.4,6.4,0,0,1-2.095,1.318,8.45,8.45,0,0,1-2.828.513,11.515,11.515,0,0,0-3.839.544,3.505,3.505,0,0,0-2.163,4.52,6.121,6.121,0,0,0,.492.976c.489.8.494.937.069,1.782s-1.668,3.048-1.809,3.2a.742.742,0,0,1-.521.234,12.587,12.587,0,0,1-1.418-.653Zm-2.785-17.107a10.124,10.124,0,0,0,1.791-.457,4.6,4.6,0,0,0,1.909-1.243,2.178,2.178,0,0,0,.588-1.651c-.026-1.667-.714-2.867-1.912-3.291a2.289,2.289,0,0,0-2.585.78,5.614,5.614,0,0,0-1.2,2,9.776,9.776,0,0,0-.8,3.209c0,.415.065.588.307.73a5.87,5.87,0,0,0,1.9-.074Z" transform="translate(14152.143 -554.095)" fill="#ff3a3a"/>
        </g>
      </g>
    </g>
    <g id="g20653" transform="translate(35.384 -78.008)">
      <path id="circle20649" d="M1659.035,1447.39a34.272,34.272,0,1,1-34.272-34.272,34.272,34.272,0,0,1,34.272,34.272" transform="translate(-1590.491 -1413.118)" fill="#ff3a3a"/>
      <path id="path20651" d="M1605.092,1429.718a4.05,4.05,0,0,0-3.481,2.07c-2.079,3.21-.838,8.393,1.034,11.922,6.991,13.18,25.452,16.4,38.791,12.559,4.439-1.28,10.825-3.279,9.693-7.408-1.033-3.766-7.863-2.394-10.97-2.381a38.619,38.619,0,0,1-16.517-3.828,43.748,43.748,0,0,1-12.5-9.446C1609.541,1431.5,1607.279,1429.7,1605.092,1429.718Zm8.092,29.208a5.777,5.777,0,1,0,5.777,5.777,5.777,5.777,0,0,0-5.777-5.777Z" transform="translate(-1589.927 -1412.187)" fill="#fff"/>
    </g>
  </g>
</svg>
