<svg width="24" height="24" viewBox="0 0 24 24" fill="none" xmlns="http://www.w3.org/2000/svg">
<path d="M23.6418 11.8143C23.6366 11.8134 23.6314 11.8131 23.6262 11.8124C23.4238 11.7857 23.2342 11.9227 23.1987 12.1258C22.8271 14.2557 20.7695 15.7495 18.3064 15.68C17.599 15.6597 16.8794 15.5299 16.1614 15.2977C16.3489 14.6283 16.4551 13.9576 16.4741 13.2951C16.5131 11.9358 16.1202 10.6162 15.3677 9.57942C14.5728 8.48412 13.4194 7.78105 12.1199 7.59987C11.8874 7.56745 11.6509 7.551 11.4168 7.551C10.5133 7.551 9.63147 7.79203 8.86064 8.24044C8.54643 7.39867 8.37158 6.55165 8.34779 5.72133C8.27507 3.18225 9.82874 1.11538 12.0421 0.806736C13.1914 0.646543 14.3754 0.962843 15.2899 1.67459C16.1708 2.36015 16.7217 3.3356 16.8412 4.4213C16.9355 5.27849 17.1805 5.83469 17.6867 6.34095C18.193 6.84727 18.7492 7.09223 19.6064 7.1866C21.4326 7.38749 22.9144 8.84015 23.2099 10.7193C23.242 10.923 23.4292 11.0631 23.6321 11.0397C23.6374 11.0391 23.6426 11.0389 23.6478 11.0381C23.8568 11.0052 23.9995 10.8092 23.9667 10.6003C23.6176 8.38061 21.859 6.66379 19.6902 6.42521C19.0054 6.34984 18.6092 6.18025 18.2284 5.79941C17.8475 5.41851 17.678 5.02229 17.6026 4.33755C17.4603 3.04432 16.8061 1.88391 15.7605 1.07018C14.6835 0.231994 13.2895 -0.140682 11.9364 0.0481584C10.6369 0.229339 9.48348 0.932306 8.68855 2.02766C7.93615 3.06444 7.5432 4.38402 7.58211 5.74334C7.61004 6.71756 7.82569 7.70941 8.21333 8.68905C8.1806 8.71565 8.14746 8.7417 8.11534 8.76917C7.17675 9.57238 6.58659 10.6805 6.45362 11.8894C6.37824 12.5742 6.20866 12.9703 5.82776 13.3512C5.44691 13.7321 5.05075 13.9017 4.36601 13.977C3.07273 14.1193 1.91231 14.7736 1.09853 15.8192C0.260397 16.8961 -0.112075 18.29 0.0766121 19.6433C0.256209 20.931 0.916639 22.0362 1.98661 22.8395C2.98336 23.5878 4.26235 24 5.58811 24.0001C5.6498 24.0001 5.71051 23.9991 5.77184 23.9974C8.21486 23.9274 10.7688 22.6805 12.963 20.4863C14.3463 19.103 15.3526 17.5767 15.9254 16.0255C16.7129 16.2804 17.5043 16.4233 18.2846 16.4457C18.348 16.4475 18.4111 16.4484 18.474 16.4484C21.2368 16.4484 23.5255 14.71 23.9533 12.2576C23.9897 12.0491 23.8502 11.8507 23.6418 11.8143ZM0.835241 19.5374C0.674946 18.3879 0.991297 17.2042 1.70305 16.2895C2.3886 15.4086 3.3641 14.8577 4.44981 14.7383C5.30704 14.6439 5.8632 14.3989 6.36946 13.8927C6.87577 13.3864 7.12074 12.8303 7.21505 11.973C7.44434 9.88873 9.25073 8.31688 11.4169 8.31688C11.6157 8.31688 11.8166 8.33082 12.0141 8.3584C14.2275 8.66704 15.7812 10.734 15.7084 13.273C15.6441 15.5198 14.4767 17.8892 12.4213 19.9445C10.3659 21.9999 7.99661 23.1673 5.74983 23.2316C5.6957 23.2332 5.64316 23.2327 5.58811 23.234C3.13278 23.2338 1.13387 21.6792 0.835241 19.5374Z" fill="#FFA231"/>
</svg>
