<svg width="24" height="20" viewBox="0 0 24 20" fill="none" xmlns="http://www.w3.org/2000/svg">
<path d="M12 0.799988C5.38322 0.799988 0 4.20935 0 8.39997V11.6C0 15.7906 5.38322 19.2 12 19.2C18.6168 19.2 24 15.7906 24 11.6V8.39997C24 4.20939 18.6168 0.799988 12 0.799988ZM23.2 11.6C23.2 15.3496 18.1758 18.4 12 18.4C5.82422 18.4 0.800016 15.3496 0.800016 11.6V8.39997C0.800016 4.65039 5.82422 1.6 12 1.6C18.1758 1.6 23.2 4.65039 23.2 8.40002V11.6Z" fill="#007D8A"/>
<path d="M21.507 7.70378C21.5684 7.93079 21.5996 8.16489 21.5999 8.40006C21.5999 9.67136 20.6757 10.9135 18.9976 11.8975C18.807 12.0092 18.7431 12.2544 18.8548 12.4449C18.9666 12.6355 19.2117 12.6995 19.4023 12.5877C21.3355 11.4542 22.3999 9.96704 22.3999 8.40001C22.3994 8.09481 22.359 7.79101 22.2796 7.49631C22.2426 7.35831 22.1347 7.2505 21.9966 7.21361C21.8586 7.17667 21.7113 7.21623 21.6103 7.3173C21.5093 7.41845 21.4699 7.56573 21.507 7.70378Z" fill="#007D8A"/>
<path d="M8.38784 3.18727C8.33318 2.97343 8.11606 2.84391 7.90189 2.89745C5.40307 3.52871 3.38234 4.72107 2.35854 6.16894C2.23165 6.34932 2.27464 6.59832 2.45464 6.72572C2.63468 6.85308 2.88382 6.81076 3.01165 6.63108C3.92726 5.33654 5.78117 4.25841 8.09797 3.67327C8.31209 3.61895 8.44179 3.40149 8.38784 3.18727Z" fill="#007D8A"/>
<path d="M2.40007 8.40002C2.40011 8.28386 2.4078 8.16789 2.42313 8.05277C2.452 7.83391 2.29816 7.63305 2.07935 7.60394C1.86054 7.57483 1.65949 7.72849 1.63019 7.9473C1.61022 8.09739 1.60019 8.24861 1.6001 8.40002C1.60057 8.70522 1.64102 9.00902 1.72043 9.30372C1.77771 9.5171 1.99708 9.64361 2.21046 9.58633C2.42383 9.52905 2.55035 9.30968 2.49307 9.0963C2.43171 8.86929 2.40044 8.63519 2.40007 8.40002Z" fill="#007D8A"/>
<path d="M11.9999 4.23669C7.73815 4.23669 4.3999 6.06538 4.3999 8.39999C4.3999 10.7346 7.73815 12.5632 11.9999 12.5632C16.2616 12.5632 19.5999 10.7346 19.5999 8.39994C19.5999 6.06533 16.2616 4.23669 11.9999 4.23669ZM11.9999 11.7633C9.38164 11.7633 7.05847 10.9844 5.9285 9.88072C7.08912 8.72971 9.41473 8.00001 11.9999 8.00001C14.585 8.00001 16.9107 8.72971 18.0713 9.88072C16.9413 10.9844 14.6181 11.7633 11.9999 11.7633ZM18.5624 9.24852C17.2275 7.99251 14.7334 7.19999 11.9999 7.19999C9.26637 7.19999 6.77225 7.99251 5.43739 9.24852C5.28753 8.99038 5.20582 8.6984 5.19987 8.39999C5.19987 6.57693 8.31392 5.03671 11.9999 5.03671C15.6859 5.03671 18.7999 6.57693 18.7999 8.39999C18.794 8.6984 18.7123 8.99038 18.5624 9.24852Z" fill="#007D8A"/>
</svg>
